<svg width="150" height="58" viewBox="0 0 150 58" fill="none" xmlns="http://www.w3.org/2000/svg">
<path d="M28.1357 56.9941C29.2174 57.1347 30.3196 57.2174 31.4101 57.245L31.8545 41.4423C31.3662 41.4313 30.8838 41.3927 30.4102 41.332L28.1357 56.9941Z" fill="#231F20"/>
<path d="M19.7527 33.0938L3.91309 38.2786C4.27268 39.2572 4.69659 40.2247 5.16728 41.1591L20.2994 34.3562C20.0918 33.9482 19.9106 33.5265 19.7527 33.0938Z" fill="#231F20"/>
<path d="M2.41992 26.0625L19.0928 27.6971C19.1425 27.2395 19.2214 26.7902 19.3237 26.3492L2.94323 22.9863C2.70935 23.9979 2.53394 25.0316 2.41992 26.0598V26.0625Z" fill="#231F20"/>
<path d="M19.0487 29.752L2.31445 30.6947C2.37877 31.72 2.50448 32.751 2.68574 33.7626L19.2153 31.1136C19.1335 30.6671 19.0779 30.215 19.0487 29.7547V29.752Z" fill="#231F20"/>
<path d="M23.8526 38.627L13.2197 50.8435C14.0617 51.4968 14.9534 52.1115 15.8684 52.6738L25.0249 39.4346C24.6185 39.1838 24.2268 38.9164 23.8526 38.627Z" fill="#231F20"/>
<path d="M26.936 40.4062L20.2061 54.8831C21.2117 55.2993 22.2525 55.6659 23.3021 55.9746L28.2896 40.8859C27.8247 40.7508 27.3745 40.5882 26.9331 40.4062H26.936Z" fill="#231F20"/>
<path d="M21.3978 36.127L7.65723 45.1846C8.28286 46.0281 8.96404 46.8467 9.68323 47.6213L22.2924 37.2047C21.9737 36.8629 21.6755 36.5046 21.3978 36.1297V36.127Z" fill="#231F20"/>
<path d="M39.3098 18.5111L48.3318 5.18642C47.4109 4.63238 46.4432 4.11968 45.4638 3.66211L38.0498 17.8385C38.4854 18.0397 38.9064 18.2657 39.3128 18.5111H39.3098Z" fill="#231F20"/>
<path d="M40.8579 1.95391C39.8055 1.65622 38.7267 1.40814 37.645 1.2207L34.6162 16.7698C35.0957 16.8525 35.5634 16.9572 36.0253 17.0895L40.8609 1.95391H40.8579Z" fill="#231F20"/>
<path d="M42.0662 20.7198L54.5642 10.1847C53.8392 9.41841 53.0586 8.68245 52.2488 7.99609L41.043 19.7496C41.4026 20.0555 41.7446 20.378 42.0662 20.7198Z" fill="#231F20"/>
<path d="M28.8623 16.9716L24.6203 1.68164C23.5591 1.9435 22.5008 2.266 21.4746 2.63537L27.4854 17.3906C27.9327 17.228 28.3917 17.0874 28.8623 16.9716Z" fill="#231F20"/>
<path d="M9.71128 12.71L21.1656 21.0068C21.4843 21.2384 21.9404 21.1943 22.2035 20.9048L22.2122 20.8938C22.4754 20.6044 22.4549 20.1744 22.1625 19.9098L11.7344 10.4855C11.097 9.90941 10.0767 9.95626 9.50079 10.5875L9.48032 10.6123C8.90439 11.2435 9.01256 12.2028 9.71128 12.71Z" fill="#231F20"/>
<path d="M15.23 7.57548L23.8807 18.4772C24.1204 18.7804 24.5706 18.8521 24.9068 18.6426L24.9185 18.6343C25.2547 18.4248 25.36 18.0031 25.1553 17.6751L17.8173 5.94642C17.3671 5.22699 16.3701 5.01199 15.6334 5.47507L15.6071 5.49161C14.8704 5.95469 14.6979 6.90566 15.227 7.57272L15.23 7.57548Z" fill="#231F20"/>
<path d="M5.87016 19.0856L19.2774 24.1382C19.6516 24.2787 20.0755 24.1189 20.2451 23.7743L20.2509 23.7605C20.4205 23.416 20.2773 23.008 19.9206 22.8289L7.18574 16.4146C6.40224 16.0204 5.42871 16.3264 5.0545 17.0844L5.03988 17.112C4.66567 17.87 5.04573 18.7714 5.87016 19.0829V19.0856Z" fill="#231F20"/>
<path d="M40.5859 38.6304L51.2217 50.847C52.0637 50.1937 52.8793 49.4908 53.6424 48.7548L41.6559 37.707C41.3168 38.0323 40.9631 38.341 40.5859 38.6332V38.6304Z" fill="#231F20"/>
<path d="M44.0825 23.5476L59.1415 16.6014C58.6621 15.6752 58.1212 14.7656 57.5365 13.8945L43.375 22.3568C43.6323 22.7399 43.872 23.1369 44.0854 23.5476H44.0825Z" fill="#231F20"/>
<path d="M29.4766 0.875764L31.0056 16.615C31.1897 16.5985 31.3769 16.5847 31.564 16.5764C31.8651 16.5627 32.1604 16.5599 32.4586 16.5654L32.7392 0.759994C32.0726 0.748968 31.3973 0.759993 30.7161 0.79307C30.301 0.812365 29.8859 0.839931 29.4766 0.875764Z" fill="#231F20"/>
<path d="M43.042 36.13L56.7825 45.1849C57.4082 44.3415 57.9899 43.4539 58.5132 42.5525L43.805 34.9668C43.5711 35.3692 43.3139 35.7551 43.0391 36.1273L43.042 36.13Z" fill="#231F20"/>
<path d="M37.5059 40.4104L44.2212 54.8928C45.2239 54.4793 46.215 54.0079 47.1652 53.4925L38.7981 39.793C38.38 40.019 37.9502 40.2257 37.5059 40.4104Z" fill="#231F20"/>
<path d="M34.0293 41.3325L36.3067 56.9946C37.3913 56.854 38.476 56.6556 39.5372 56.4047L35.453 41.0762C34.9882 41.1864 34.5146 41.2719 34.0293 41.3353V41.3325Z" fill="#231F20"/>
<path d="M7.01861 10.5748C8.02613 10.5748 8.84289 9.80473 8.84289 8.85479C8.84289 7.90485 8.02613 7.13477 7.01861 7.13477C6.01109 7.13477 5.19434 7.90485 5.19434 8.85479C5.19434 9.80473 6.01109 10.5748 7.01861 10.5748Z" fill="#231F20"/>
<path d="M13.6436 4.66465C14.6522 4.66465 15.4679 3.8956 15.4679 2.94463C15.4679 1.99366 14.6522 1.22461 13.6436 1.22461C12.635 1.22461 11.8193 1.99366 11.8193 2.94463C11.8193 3.8956 12.635 4.66465 13.6436 4.66465Z" fill="#231F20"/>
<path d="M2.3853 17.7723C3.3798 17.6201 4.05514 16.7366 3.89371 15.799C3.73228 14.8613 2.79521 14.2245 1.80071 14.3768C0.806205 14.529 0.130866 15.4125 0.292296 16.3501C0.453727 17.2878 1.3908 17.9245 2.3853 17.7723Z" fill="#231F20"/>
<path d="M73.8685 18.3979C77.6018 18.3979 79.6687 16.2038 79.8909 13.1745L77.4819 13.0807C77.3007 14.8586 76.178 16.3168 73.8685 16.3168C71.5589 16.3168 70.1351 14.7263 70.1351 12.2097C70.1351 9.69307 71.6203 8.1026 73.8685 8.1026C76.1166 8.1026 77.3007 9.56076 77.4819 11.3387L79.8909 11.2449C79.6716 8.23491 77.6018 6.02148 73.8685 6.02148C70.1351 6.02148 67.5273 8.53812 67.5273 12.2097C67.5273 15.8813 70.2755 18.3979 73.8685 18.3979Z" fill="#231F20"/>
<path d="M86.7728 18.3996C89.8045 18.3996 92.2105 17.0186 92.2105 13.5372V6.25195H89.7022V13.3112C89.7022 15.3537 88.7783 16.415 86.7728 16.415C84.7673 16.415 83.8639 15.3565 83.8639 13.2919V6.25195H81.376V13.5372C81.376 17.0186 83.744 18.3996 86.7757 18.3996H86.7728Z" fill="#231F20"/>
<path d="M103.472 16.2055H96.7886V6.25195H94.2803V18.1736H103.472V16.2055Z" fill="#231F20"/>
<path d="M106.766 18.1736H109.274V8.22005H113.809V6.25195H102.29V8.22005H106.766V18.1736Z" fill="#231F20"/>
<path d="M126.093 13.5372V6.25195H123.585V13.3112C123.585 15.3537 122.661 16.415 120.656 16.415C118.65 16.415 117.747 15.3565 117.747 13.2919V6.25195H115.259V13.5372C115.259 17.0186 117.627 18.3996 120.659 18.3996C123.69 18.3996 126.096 17.0186 126.096 13.5372H126.093Z" fill="#231F20"/>
<path d="M136.313 18.1747H138.883C138.462 17.7392 138.4 17.1328 138.239 15.3742C138.099 13.9739 137.357 13.18 135.909 12.9154C137.456 12.7252 138.698 11.686 138.698 9.88885C138.698 7.67542 137.114 6.25586 133.883 6.25586H128.162V18.1775H130.632V13.7699H133.603C135.047 13.7699 135.69 14.3763 135.79 15.7187C135.889 17.0446 136.05 17.8577 136.31 18.1775L136.313 18.1747ZM133.544 11.9121H130.635V8.16607H133.544C135.371 8.16607 136.213 8.86621 136.213 10.0597C136.213 11.347 135.369 11.9148 133.544 11.9148V11.9121Z" fill="#231F20"/>
<path d="M143.015 16.2055V13.0631H148.354V11.1143H143.015V8.22005H149.818V6.25195H140.545V18.1736H150V16.2055H143.015Z" fill="#231F20"/>
<path d="M77.1606 25.0111V23.043H68.1094V34.9646H70.6178V30.1215H75.6754V28.1892H70.6178V25.0111H77.1606Z" fill="#231F20"/>
<path d="M77.6426 29.0046C77.6426 32.6762 80.3731 35.1928 84.0655 35.1928C87.758 35.1928 90.4681 32.6762 90.4681 29.0046C90.4681 25.333 87.7404 22.8164 84.0655 22.8164C80.3907 22.8164 77.6426 25.333 77.6426 29.0046ZM87.8778 29.0046C87.8778 31.502 86.3927 33.1117 84.0655 33.1117C81.7384 33.1117 80.2504 31.502 80.2504 29.0046C80.2504 26.5073 81.7355 24.8975 84.0655 24.8975C86.3956 24.8975 87.8778 26.5045 87.8778 29.0046Z" fill="#231F20"/>
<path d="M102.63 26.676C102.63 24.4625 101.046 23.043 97.8151 23.043H92.0938V34.9646H94.5641V30.557H97.5344C98.9786 30.557 99.6218 31.1634 99.7212 32.5058C99.8206 33.8317 99.9814 34.6448 100.242 34.9646H102.811C102.39 34.5291 102.329 33.9226 102.168 32.164C102.028 30.7638 101.285 29.9699 99.8382 29.7053C101.385 29.5151 102.627 28.4759 102.627 26.6787L102.63 26.676ZM97.473 28.6992H94.5641V24.9532H97.473C99.3002 24.9532 100.142 25.6533 100.142 26.8469C100.142 28.1341 99.2973 28.7019 97.473 28.7019V28.6992Z" fill="#231F20"/>
<path d="M73.8685 41.6905C76.1751 41.6905 77.3007 43.1486 77.4819 44.9265L79.8909 44.8328C79.6716 41.8228 77.6018 39.6094 73.8685 39.6094C70.1351 39.6094 67.5273 42.126 67.5273 45.7976C67.5273 49.4692 70.2755 51.9858 73.8685 51.9858C77.4615 51.9858 79.6687 49.7917 79.8909 46.7623L77.4819 46.6686C77.3007 48.4465 76.178 49.9047 73.8685 49.9047C71.5589 49.9047 70.1351 48.3142 70.1351 45.7976C70.1351 43.2809 71.6203 41.6905 73.8685 41.6905Z" fill="#231F20"/>
<path d="M90.2452 44.7011H84.0035V39.8359H81.4951V51.7575H84.0035V46.6499H90.2452V51.7575H92.7536V39.8359H90.2452V44.7011Z" fill="#231F20"/>
<path d="M99.1191 39.8359L94 51.7575H96.5288L97.7538 48.8054H103.133L104.399 51.7575H107.068L101.911 39.8359H99.122H99.1191ZM98.5168 46.9889L100.382 42.5235H100.464L102.37 46.9889H98.5168Z" fill="#231F20"/>
<path d="M116.759 47.7855L110.781 39.8359H108.29V51.7575H110.62V43.3559L117.081 51.7575H119.09V39.8359H116.759V47.7855Z" fill="#231F20"/>
<path d="M127.418 47.5011H130.769C130.409 49.0143 129.102 49.9791 127.316 49.9791C124.846 49.9791 123.323 48.3528 123.323 45.7976C123.323 43.2424 124.808 41.6905 127.117 41.6905C129.225 41.6905 130.468 42.8454 130.629 44.604L133.075 44.5103C132.815 41.5003 130.707 39.6094 127.056 39.6094C123.404 39.6094 120.715 42.126 120.715 45.7976C120.715 49.4692 123.343 51.9858 126.878 51.9858C128.684 51.9858 130.269 51.3242 130.892 49.9984V51.7598H133.119V45.7425H127.418V47.5038V47.5011Z" fill="#231F20"/>
<path d="M137.695 46.6499H143.036V44.7011H137.695V41.804H144.501V39.8359H135.228V51.7575H144.679V49.7894H137.695V46.6499Z" fill="#231F20"/>
</svg>
